# AST/ASF file generated using VICON BodyLanguage
# -----------------------------------------------
:version 1.10
:name VICON
:units
  mass 1.0
  length 0.45
  angle deg
:documentation
   .ast/.asf automatically generated from VICON data using
   VICON BodyBuilder and BodyLanguage model FoxedUp or BRILLIANT.MOD
:root
   order TX TY TZ RX RY RZ
   axis XYZ
   position 0 0 0  
   orientation 0 0 0 
:bonedata
  begin
     id 1 
     name lhipjoint
     direction 0.558404 -0.748506 0.357664 
     length 2.4234 
     axis 0 0 0  XYZ
  end
  begin
     id 2 
     name lfemur
     direction 0.34202 -0.939693 0  
     length 7.14567  
     axis 0 0 20  XYZ
    dof rx ry rz
    limits (-160.0 20.0)
           (-70.0 70.0)
           (-60.0 70.0)
  end
  begin
     id 3 
     name ltibia
     direction 0.34202 -0.939693 0   
     length 8.13956   
     axis 0 0 20   XYZ
    dof rx
    limits (-10.0 170.0)
  end
  begin
     id 4 
     name lfoot
     direction 0.0791314 -0.217412 0.972867   
     length 2.00134   
     axis -90 7.62852e-016 20   XYZ
    dof rx rz
    limits (-45.0 90.0)
           (-70.0 20.0)
  end
  begin
     id 5 
     name ltoes
     direction 1.53547e-011 -4.21922e-011 1   
     length 1.00735   
     axis -90 7.62852e-016 20   XYZ
    dof rx
    limits (-90.0 20.0)
  end
  begin
     id 6 
     name rhipjoint
     direction -0.496392 -0.78327 0.374276   
     length 2.31584  
     axis 0 0 0  XYZ 
  end
  begin
     id 7 
     name rfemur
     direction -0.34202 -0.939693 0   
     length 7.47417   
     axis 0 0 -20   XYZ
    dof rx ry rz
    limits (-160.0 20.0)
           (-70.0 70.0)
           (-70.0 60.0)
  end
  begin
     id 8 
     name rtibia
     direction -0.34202 -0.939693 0   
     length 7.69071   
     axis 0 0 -20   XYZ
    dof rx
    limits (-10.0 170.0)
 end
 begin
     id 9 
     name rfoot
     direction -0.103069 -0.28318 0.953512   
     length 2.16135  
     axis -90 -7.62852e-016 -20   XYZ
    dof rx rz
    limits (-45.0 90.0)
           (-20.0 70.0)
  end
  begin
     id 10 
     name rtoes
     direction -1.53581e-011 -4.21904e-011 1   
     length 1.07867   
     axis -90 -7.62852e-016 -20   XYZ
    dof rx
    limits (-90.0 20.0)
  end
  begin
     id 11 
     name lowerback
     direction -0.0258961 0.994776 -0.0987407   
     length 2.19412   
     axis 0 0 0   XYZ
    dof rx ry rz
    limits (-20.0 45.0)
           (-30.0 30.0)
           (-30.0 30.0)
  end
  begin
     id 12 
     name upperback
     direction 0.0402454 0.999185 0.00320666   
     length 2.18445   
     axis 0 0 0   XYZ
    dof rx ry rz
    limits (-20.0 45.0)
           (-30.0 30.0)
           (-30.0 30.0)
  end
  begin
     id 13 
     name thorax
     direction 0.0519376 0.997415 0.0496558   
     length 2.21487   
     axis 0 0 0   XYZ
    dof rx ry rz
    limits (-20.0 45.0)
           (-30.0 30.0)
           (-30.0 30.0)
  end
  begin
     id 14 
     name lowerneck
     direction -0.0921276 0.983211 0.157506   
     length 1.61201   
     axis 0 0 0   XYZ
    dof rx ry rz
    limits (-20.0 45.0)
           (-30.0 30.0)
           (-30.0 30.0)
  end
  begin
     id 15 
     name upperneck
     direction 0.0820814 0.98162 -0.172292   
     length 1.65275   
     axis 0 0 0   XYZ
    dof rx ry rz
    limits (-20.0 45.0)
           (-30.0 30.0)
           (-30.0 30.0)
  end
  begin
     id 16
     name head
     direction 0.0336554 0.996413 -0.0776455  
     length 1.66415  
     axis 0 0 0   XYZ
    dof rx ry rz
    limits (-20.0 45.0)
           (-30.0 30.0)
           (-30.0 30.0)
  end
  begin
     id 17 
     name lclavicle
     direction 0.94696 0.284418 -0.149576  
     length 3.41447  
     axis 0 0 0   XYZ
    dof ry rz
    limits (-20.0 10.0)
           (0.0 20.0)
  end
  begin
     id 18 
     name lhumerus
     direction 1 -0.000130264 -9.81312e-005   
     length 5.19964   
     axis 180 -30 -90   XYZ
    dof rx ry rz
    limits (-60.0 90.0)
           (-90.0 90.0)
           (-90.0 90.0)
  end
  begin
     id 19
     name lradius
     direction 1 -4.48961e-011 1.43854e-026   
     length 3.32189   
     axis 180 -30 -90   XYZ
    dof rx
    limits (-10.0 170.0)
  end
  begin
     id 20
     name lwrist
     direction 1 -4.48958e-011 3.1502e-026   
     length 1.66095   
     axis -1.97692e-014 90 90   XYZ
    dof ry
    limits (-180.0 0.0)
 end
  begin
     id 21 
     name lhand
     direction 1 -4.48927e-011 6.3004e-026   
     length 0.645616   
     axis -4.02019e-014 90 90   XYZ
    dof rx rz
    limits (-90.0 90.0)
           (-45.0 45.0)
  end
  begin
     id 22 
     name lfingers
     direction 1 -4.4904e-011 1.26008e-025   
     length 0.520512   
     axis -8.04039e-014 90 90   XYZ
    dof rx
    limits (0.0 90.0)
  end
  begin
     id 23
     name lthumb
     direction 0.707107 -6.34947e-011 0.707107   
     length 0.747354   
     axis -90 45 2.85299e-015   XYZ
    dof rx rz
    limits (-45.0 45.0)
           (-45.0 45.0)
  end
  begin
     id 24 
     name rclavicle
     direction -0.909391 0.383475 -0.161107   
     length 3.25176  
     axis 0 0 0   XYZ 
    dof ry rz
    limits (-10.0 20.0)
           (-20.0 0.0)
  end
  begin
     id 25 
     name rhumerus
     direction -1 -4.48965e-011 -1.81384e-027  
     length 5.6595   
     axis 180 30 90   XYZ
    dof rx ry rz
    limits (-90.0 60.0)
           (-90.0 90.0)
           (-90.0 90.0)
  end
  begin
     id 26 
     name rradius
     direction -1 -4.48996e-011 -8.09397e-027   
     length 3.37604   
     axis 180 30 90   XYZ
    dof rx
    limits (-10.0 170.0)
  end
  begin
     id 27 
     name rwrist
     direction -1 -4.48927e-011 -1.56669e-026   
     length 1.68802   
     axis 1.21142e-014 -90 -90   XYZ
    dof ry
    limits (-180.0 0.0)
  end
  begin
     id 28
     name rhand
     direction -1 -4.48912e-011 -3.13339e-026   
     length 0.824702   
     axis 1.99937e-014 -90 -90   XYZ
    dof rx rz
    limits (-90.0 90.0)
           (-45.0 45.0)
  end
  begin
     id 29
     name rfingers
     direction -1 -4.49011e-011 -6.26677e-026   
     length 0.664896   
     axis 3.99874e-014 -90 -90   XYZ
    dof rx
    limits (0.0 90.0)
  end
  begin
     id 30
     name rthumb
     direction -0.707107 -6.34931e-011 0.707107   
     length 0.954662   
     axis -90 -45 -2.85299e-015   XYZ
    dof rx rz
    limits (-45.0 45.0)
           (-45.0 45.0)
  end
:hierarchy
  begin
    root lhipjoint rhipjoint lowerback
    lhipjoint lfemur
    lfemur ltibia
    ltibia lfoot
    lfoot ltoes
    rhipjoint rfemur
    rfemur rtibia
    rtibia rfoot
    rfoot rtoes
    lowerback upperback
    upperback thorax
    thorax lowerneck lclavicle rclavicle
    lowerneck upperneck
    upperneck head
    lclavicle lhumerus
    lhumerus lradius
    lradius lwrist
    lwrist lhand lthumb
    lhand lfingers
    rclavicle rhumerus
    rhumerus rradius
    rradius rwrist
    rwrist rhand rthumb
    rhand rfingers
  end

#!OML:ASF F:\VICON\USERDATA\INSTALL\rory3\rory3.ASF
:FULLY-SPECIFIED
:DEGREES
90
root 13.385 17.8086 -42.9296 4.95326 -23.2005 1.60861
lowerback 5.89283 1.56532 -5.40349
upperback -0.183106 1.82001 3.07135
thorax -3.77425 1.04091 6.08934
lowerneck -11.7399 -4.03423 -15.2151
upperneck 23.7152 -3.62668 5.00504
head 9.88376 -2.52218 3.86366
rclavicle 9.34288e-015 2.22639e-014
rhumerus -33.3259 -15.0596 -71.9033
rradius 37.3381
rwrist -14.5999
rhand -9.89339 17.5456
rfingers 7.12502
rthumb 16.0863 -11.8067
lclavicle 9.34288e-015 2.22639e-014
lhumerus -34.8232 23.5337 71.9159
lradius 36.0397
lwrist -4.04787
lhand -3.83252 31.6386
lfingers 7.12502
lthumb 21.9148 60.4174
rfemur -16.8361 6.27581 10.5255
rtibia 40.123
rfoot -23.7068 -4.59349
rtoes 7.94623
lfemur -19.4476 0.554377 -22.8691
ltibia 38.9324
lfoot -21.4971 5.6245
ltoes 2.76667
91
root 13.4114 17.8059 -42.9029 4.86824 -23.9598 1.55299
lowerback 6.25055 1.65817 -5.55099
upperback -0.273174 1.92148 3.19762
thorax -4.09547 1.10908 6.29156
lowerneck -11.8123 -3.9861 -15.2766
upperneck 23.7309 -3.50018 4.86403
head 9.89009 -2.485 3.83817
rclavicle -2.80286e-014 -1.51076e-014
rhumerus -33.6535 -14.963 -71.7112
rradius 37.1479
rwrist -14.6643
rhand -9.76323 17.4823
rfingers 7.12502
rthumb 16.2116 -11.8598
lclavicle -2.80286e-014 -1.51076e-014
lhumerus -34.9407 23.309 71.8073
lradius 36.6314
lwrist -4.0261
lhand -2.99756 33.5973
lfingers 7.12502
lthumb 22.7163 62.2801
rfemur -16.9287 6.71895 10.3505
rtibia 40.223
rfoot -23.4914 -4.01236
rtoes 8.85136
lfemur -19.233 0.873653 -23.0104
ltibia 38.9825
lfoot -21.6581 6.48274
ltoes 0.72758
92
root 13.4389 17.7969 -42.8767 4.80551 -24.5477 1.62286
lowerback 6.41493 1.66615 -5.72221
upperback -0.305018 1.91354 3.25329
thorax -4.22884 1.11508 6.4475
lowerneck -11.774 -3.90972 -15.3547
upperneck 23.6183 -3.37246 4.82092
head 9.82998 -2.43443 3.84977
rclavicle 4.07509e-014 6.36111e-015
rhumerus -33.9047 -14.6937 -71.652
rradius 37.075
rwrist -14.8572
rhand -9.89024 17.2533
rfingers 7.12502
rthumb 16.0893 -12.0988
lclavicle 4.07509e-014 6.36111e-015
lhumerus -34.959 23.1852 71.6671
lradius 37.1293
lwrist -4.08228
lhand -2.4424 34.9505
lfingers 7.12502
lthumb 23.249 63.567
rfemur -17.0769 6.82836 10.1007
rtibia 40.2524
rfoot -23.0036 -3.85405
rtoes 7.14893
lfemur -19.1248 1.17166 -23.266
ltibia 39.0167
lfoot -21.7513 7.21267
ltoes -1.52898
93
root 13.4661 17.7876 -42.8407 4.82246 -25.4834 1.56523
lowerback 6.22745 1.75404 -5.70493
upperback -0.164401 2.04153 3.25846
thorax -3.9951 1.16629 6.43343
lowerneck -11.8669 -3.83446 -15.3754
upperneck 23.4234 -3.25696 4.87097
head 9.7651 -2.36917 3.88161
rclavicle -1.0138e-014 -1.66979e-014
rhumerus -33.9068 -14.5808 -71.7534
rradius 36.9385
rwrist -14.8663
rhand -10.1206 17.1916
rfingers 7.12502
rthumb 15.8676 -12.1782
lclavicle -1.0138e-014 -1.66979e-014
lhumerus -34.7591 23.1633 71.5023
lradius 37.4629
lwrist -4.15873
lhand -2.35558 35.0709
lfingers 7.12502
lthumb 23.3323 63.6769
rfemur -17.171 7.53627 9.80199
rtibia 40.3513
rfoot -23.0368 -2.60889
rtoes 12.4143
lfemur -19.0161 1.27079 -23.4497
ltibia 39.0686
lfoot -21.6482 7.55501
ltoes 0.120503
94
root 13.4891 17.7903 -42.8098 4.6595 -23.9064 1.60196
lowerback 6.48823 1.07614 -5.36563
upperback -0.0965648 1.14701 3.22059
thorax -3.92252 0.708172 6.28843
lowerneck -11.942 -3.82356 -15.2777
upperneck 23.3232 -3.2712 4.95705
head 9.74206 -2.35357 3.89256
rclavicle -3.19049e-014 1.27222e-014
rhumerus -34.0411 -14.7739 -71.8332
rradius 36.8069
rwrist -14.8038
rhand -10.2087 17.2657
rfingers 7.12502
rthumb 15.7827 -12.1108
lclavicle -3.19049e-014 1.27222e-014
lhumerus -34.4446 22.8733 71.3154
lradius 37.7711
lwrist -4.09235
lhand -1.04294 37.4319
lfingers 7.12502
lthumb 24.591 65.8724
rfemur -16.6541 6.33402 10.0128
rtibia 40.4541
rfoot -23.1084 -3.93084
rtoes 8.16956
lfemur -18.8637 0.425 -23.4229
ltibia 39.1022
lfoot -21.5916 6.76393
ltoes -0.552631
95
root 13.5089 17.7968 -42.8026 5.1485 -24.7339 1.56861
lowerback 6.06116 1.19885 -5.55548
upperback -0.185615 1.31631 3.21135
thorax -3.80496 0.795201 6.37378
lowerneck -11.788 -3.81328 -15.2161
upperneck 23.162 -3.2985 4.96294
head 9.65646 -2.35639 3.87951
rclavicle -5.99336e-014 4.13472e-014
rhumerus -34.2891 -15.0562 -71.7196
rradius 36.6668
rwrist -14.6413
rhand -10.1826 17.3608
rfingers 7.12502
rthumb 15.8078 -12.0138
lclavicle -5.99336e-014 4.13472e-014
lhumerus -34.1273 22.4675 71.2352
lradius 37.7285
lwrist -3.12659
lhand -2.21276 35.9448
lfingers 7.12502
lthumb 23.4693 64.5334
rfemur -17.4986 6.83203 9.77533
rtibia 40.6462
rfoot -23.2357 -3.3012
rtoes 11.0236
lfemur -19.3812 1.01248 -23.5362
ltibia 39.1332
lfoot -21.6715 6.96126
ltoes -0.752937
96
root 13.5367 17.7974 -42.7813 5.34334 -24.5818 1.61616
lowerback 5.88528 0.996809 -5.53442
upperback -0.192042 1.05604 3.21443
thorax -3.67221 0.660642 6.39136
lowerneck -11.8645 -3.8209 -15.1255
upperneck 23.1373 -3.29802 4.88591
head 9.659 -2.35505 3.83593
rclavicle 1.95803e-014 -1.59028e-015
rhumerus -34.4364 -15.2833 -71.5594
rradius 36.5419
rwrist -14.6006
rhand -10.1345 17.3923
rfingers 7.12502
rthumb 15.8541 -11.9786
lclavicle 1.95803e-014 -1.59028e-015
lhumerus -33.821 22.1958 71.2046
lradius 38.1862
lwrist -3.33467
lhand -1.96002 36.2834
lfingers 7.12502
lthumb 23.7117 64.8407
rfemur -17.771 6.53091 9.62262
rtibia 40.8176
rfoot -23.411 -3.27233
rtoes 10.5584
lfemur -19.5957 0.872157 -23.678
ltibia 39.1358
lfoot -21.7061 6.90598
ltoes -0.849807
97
root 13.5579 17.7931 -42.7545 5.31311 -25.271 1.68056
lowerback 5.85732 1.09205 -5.72934
upperback -0.108022 1.17097 3.20352
thorax -3.59038 0.716276 6.48134
lowerneck -12.1572 -3.82249 -15.051
upperneck 23.2002 -3.27203 4.90413
head 9.73148 -2.33382 3.83232
rclavicle 6.4605e-015 1.59028e-014
rhumerus -34.5677 -15.45 -71.4644
rradius 36.4299
rwrist -14.5938
rhand -10.0117 17.4327
rfingers 7.12502
rthumb 15.9723 -11.9288
lclavicle 6.4605e-015 1.59028e-014
lhumerus -33.5464 21.907 71.1835
lradius 38.5558
lwrist -3.37625
lhand -3.02005 34.5845
lfingers 7.12502
lthumb 22.6947 63.27
rfemur -18.0142 6.7021 9.35606
rtibia 41.0045
rfoot -23.2641 -2.87942
rtoes 10.283
lfemur -19.4897 1.16353 -23.9149
ltibia 39.1343
lfoot -21.828 7.2408
ltoes -0.626776
98
root 13.5841 17.7909 -42.7246 5.33209 -25.7664 1.6101
lowerback 5.8747 1.08103 -5.74844
upperback -0.0585 1.15642 3.27494
thorax -3.54824 0.707006 6.56986
lowerneck -12.305 -3.77407 -15.0527
upperneck 23.0859 -3.16638 4.85845
head 9.70661 -2.28418 3.82628
rclavicle -8.34896e-015 2.06736e-014
rhumerus -34.6671 -15.5385 -71.3217
rradius 36.1861
rwrist -14.4822
rhand -10.101 17.4263
rfingers 7.12502
rthumb 15.8864 -11.942
lclavicle -8.34896e-015 2.06736e-014
lhumerus -33.3768 21.7859 71.1403
lradius 38.683
lwrist -3.22393
lhand -2.33254 36.1719
lfingers 7.12502
lthumb 23.3544 64.7751
rfemur -18.1973 6.62226 9.25843
rtibia 41.1408
rfoot -22.9712 -2.5137
rtoes 10.4005
lfemur -19.3698 1.25976 -24.0238
ltibia 39.1161
lfoot -21.9362 7.60031
ltoes -0.22404
99
root 13.6118 17.7896 -42.6774 5.22917 -26.5548 1.48692
lowerback 5.90542 1.19318 -5.70707
upperback 0.0169773 1.3107 3.37178
thorax -3.51249 0.780524 6.63463
lowerneck -12.2474 -3.76273 -15.0441
upperneck 22.9376 -3.12069 4.68732
head 9.63719 -2.27605 3.76681
rclavicle -3.96575e-014 1.59028e-014
rhumerus -34.9184 -15.5159 -71.0185
rradius 35.999
rwrist -14.6009
rhand -10.1781 17.3898
rfingers 7.12502
rthumb 15.8122 -11.9844
lclavicle -3.96575e-014 1.59028e-014
lhumerus -33.3729 21.6066 71.1571
lradius 38.8261
lwrist -2.99403
lhand -2.15518 36.3367
lfingers 7.12502
lthumb 23.5245 64.9181
rfemur -18.2926 6.6747 9.16687
rtibia 41.2637
rfoot -22.7171 -2.14747
rtoes 9.43073
lfemur -19.0092 1.22596 -24.1571
ltibia 39.0805
lfoot -22.1571 8.27074
ltoes 0.859411
100
root 13.6314 17.7906 -42.6618 5.23615 -26.8539 1.6449
lowerback 6.14788 1.14478 -6.12864
upperback -0.105475 1.2072 3.45725
thorax -3.77291 0.751158 6.97815
lowerneck -12.1463 -3.70846 -15.0778
upperneck 22.8212 -3.03817 4.6146
head 9.5684 -2.24576 3.75522
rclavicle -2.29596e-014 -2.14687e-014
rhumerus -35.257 -15.2261 -70.773
rradius 35.9298
rwrist -14.9056
rhand -10.1565 17.3965
rfingers 7.12502
rthumb 15.833 -11.9761
lclavicle -2.29596e-014 -2.14687e-014
lhumerus -33.4523 21.4288 71.1122
lradius 39.0775
lwrist -2.7367
lhand -2.36136 36.1967
lfingers 7.12502
lthumb 23.3268 64.8034
rfemur -18.5361 6.57366 8.88708
rtibia 41.3938
rfoot -22.5985 -2.07109
rtoes 8.74705
lfemur -19.0486 1.42769 -24.4209
ltibia 39.0707
lfoot -22.2677 8.27185
ltoes 1.53984
101
root 13.6501 17.7898 -42.6498 5.32417 -27.0089 1.70468
lowerback 6.23673 0.964922 -6.36934
upperback -0.145527 0.946693 3.52363
thorax -3.82729 0.630083 7.21471
lowerneck -12.1194 -3.5931 -15.1192
upperneck 22.6107 -2.87441 4.62463
head 9.47159 -2.16477 3.78242
rclavicle 2.69353e-014 0
rhumerus -35.3003 -15.1218 -70.6986
rradius 35.6375
rwrist -14.8511
rhand -10.5339 17.3142
rfingers 7.12502
rthumb 15.4695 -12.0868
lclavicle 2.69353e-014 0
lhumerus -33.4397 21.6266 70.8453
lradius 39.2729
lwrist -2.96464
lhand -2.93205 34.9643
lfingers 7.12502
lthumb 22.7792 63.6394
rfemur -18.7586 6.45923 8.74229
rtibia 41.5296
rfoot -22.4898 -1.99448
rtoes 9.04958
lfemur -19.1442 1.43465 -24.5602
ltibia 39.0764
lfoot -22.4982 8.30982
ltoes 1.54627
102
root 13.6681 17.7877 -42.6356 5.46975 -27.1291 1.48076
lowerback 6.2317 0.848896 -6.21562
upperback -0.0782321 0.804031 3.55345
thorax -3.727 0.549773 7.17146
lowerneck -12.1237 -3.54566 -15.0052
upperneck 22.4433 -2.83552 4.64039
head 9.40554 -2.12896 3.77143
rclavicle -4.01545e-014 4.29375e-014
rhumerus -35.3631 -15.3701 -70.6907
rradius 35.4448
rwrist -14.8929
rhand -10.9088 17.0174
rfingers 7.12502
rthumb 15.1083 -12.4112
lclavicle -4.01545e-014 4.29375e-014
lhumerus -33.1487 21.5762 70.6952
lradius 39.2874
lwrist -3.22174
lhand -2.78411 35.1541
lfingers 7.12502
lthumb 22.9211 63.8116
rfemur -18.8888 6.43344 8.90615
rtibia 41.6878
rfoot -22.2966 -1.839
rtoes 9.70758
lfemur -19.1699 1.64767 -24.4032
ltibia 39.0982
lfoot -22.7399 8.04491
ltoes 1.54353
103
root 13.684 17.7846 -42.6199 5.51851 -27.3105 1.49047
lowerback 6.20806 0.807843 -6.29524
upperback -0.0458346 0.743838 3.52897
thorax -3.67021 0.517688 7.19703
lowerneck -12.1947 -3.52808 -14.9037
upperneck 22.5016 -2.83053 4.6729
head 9.43583 -2.11651 3.76761
rclavicle 1.72943e-014 -3.49861e-014
rhumerus -35.5478 -15.5602 -70.6266
rradius 35.3598
rwrist -15.1894
rhand -10.9089 16.8579
rfingers 7.12502
rthumb 15.1082 -12.5707
lclavicle 1.72943e-014 -3.49861e-014
lhumerus -32.6357 21.318 70.6782
lradius 38.9304
lwrist -3.35317
lhand -3.39053 33.5297
lfingers 7.12502
lthumb 22.3391 62.2583
rfemur -19.0448 6.40548 8.81636
rtibia 41.8438
rfoot -22.115 -1.6171
rtoes 9.56858
lfemur -19.1862 2.10264 -24.49
ltibia 39.0994
lfoot -22.7847 7.75258
ltoes 1.63271
104
root 13.7029 17.7794 -42.6043 5.56958 -27.4183 1.75441
lowerback 6.08941 0.628377 -6.61341
upperback 0.00856565 0.486285 3.47636
thorax -3.50472 0.385939 7.3489
lowerneck -12.6007 -3.47787 -14.7907
upperneck 22.698 -2.71906 4.67272
head 9.56601 -2.05891 3.76375
rclavicle 7.95139e-015 5.56597e-015
rhumerus -35.414 -15.5825 -70.6642
rradius 35.0948
rwrist -15.4072
rhand -10.9145 16.839
rfingers 7.12502
rthumb 15.1028 -12.59
lclavicle 7.95139e-015 5.56597e-015
lhumerus -32.1668 21.3855 70.5193
lradius 38.5394
lwrist -3.36487
lhand -3.41346 33.9889
lfingers 7.12502
lthumb 22.3171 62.7201
rfemur -19.3075 6.18055 8.46291
rtibia 41.9949
rfoot -22.03 -1.5794
rtoes 7.83971
lfemur -19.3109 2.23525 -24.8426
ltibia 39.0556
lfoot -22.7825 7.75882
ltoes 1.68926
